<mxfile host="Electron" modified="2023-07-23T03:32:53.523Z" agent="Mozilla/5.0 (Macintosh; Intel Mac OS X 10_15_7) AppleWebKit/537.36 (KHTML, like Gecko) draw.io/21.6.1 Chrome/112.0.5615.204 Electron/24.6.1 Safari/537.36" etag="gjFnc9ICHV8kCg-OOUKK" version="21.6.1" type="device" pages="2">
  <diagram id="JP2djEKnHQQ-mV6eZ-kj" name="Page-2">
    <mxGraphModel dx="1051" dy="-1028" grid="1" gridSize="10" guides="1" tooltips="1" connect="1" arrows="1" fold="1" page="1" pageScale="1" pageWidth="1600" pageHeight="900" math="0" shadow="0">
      <root>
        <mxCell id="0" />
        <mxCell id="1" parent="0" />
        <mxCell id="ObnNZoZUJbo5KREX1ywR-1" value="&lt;font style=&quot;font-size: 13px;&quot;&gt;&lt;b style=&quot;font-size: 13px;&quot;&gt;Messaging&lt;/b&gt;&lt;/font&gt;" style="rounded=0;whiteSpace=wrap;html=1;fontFamily=Helvetica;verticalAlign=bottom;align=right;fontSize=13;fontStyle=2;opacity=90;glass=0;fontColor=#000000;" vertex="1" parent="1">
          <mxGeometry x="430" y="2270" width="300" height="64.75" as="geometry" />
        </mxCell>
        <mxCell id="ObnNZoZUJbo5KREX1ywR-2" value="&lt;font style=&quot;font-size: 13px;&quot;&gt;&lt;b style=&quot;font-size: 13px;&quot;&gt;Identity&lt;/b&gt;&lt;/font&gt;" style="rounded=0;whiteSpace=wrap;html=1;fontFamily=Helvetica;verticalAlign=bottom;align=right;fontSize=13;fontStyle=2;opacity=90;glass=0;fontColor=#000000;" vertex="1" parent="1">
          <mxGeometry x="430" y="2197.63" width="300" height="60" as="geometry" />
        </mxCell>
        <mxCell id="ObnNZoZUJbo5KREX1ywR-3" value="&lt;font style=&quot;font-size: 13px;&quot;&gt;&lt;b style=&quot;font-size: 13px;&quot;&gt;UX&lt;/b&gt;&lt;/font&gt;" style="rounded=0;whiteSpace=wrap;html=1;fontFamily=Helvetica;verticalAlign=bottom;align=right;fontSize=13;fontStyle=2;opacity=90;glass=0;fontColor=#000000;" vertex="1" parent="1">
          <mxGeometry x="430" y="1918" width="300" height="94.75" as="geometry" />
        </mxCell>
        <mxCell id="ObnNZoZUJbo5KREX1ywR-5" value="&lt;font style=&quot;font-size: 13px;&quot;&gt;&lt;b style=&quot;font-size: 13px;&quot;&gt;Business&lt;/b&gt;&lt;/font&gt;" style="rounded=0;whiteSpace=wrap;html=1;fontFamily=Helvetica;verticalAlign=bottom;align=right;fontSize=13;fontStyle=2;opacity=90;glass=0;fontColor=#000000;" vertex="1" parent="1">
          <mxGeometry x="430" y="2023" width="300" height="94.75" as="geometry" />
        </mxCell>
        <mxCell id="ObnNZoZUJbo5KREX1ywR-6" value="React&lt;br&gt;Tailwind" style="text;html=1;strokeColor=none;fillColor=none;align=left;verticalAlign=middle;whiteSpace=wrap;rounded=0;" vertex="1" parent="1">
          <mxGeometry x="520" y="1930" width="160" height="70" as="geometry" />
        </mxCell>
        <mxCell id="ObnNZoZUJbo5KREX1ywR-8" value="NodeJS" style="text;html=1;strokeColor=none;fillColor=none;align=left;verticalAlign=middle;whiteSpace=wrap;rounded=0;" vertex="1" parent="1">
          <mxGeometry x="520" y="2035.38" width="160" height="70" as="geometry" />
        </mxCell>
        <mxCell id="ObnNZoZUJbo5KREX1ywR-9" value="PolygonID&lt;br&gt;Next ID" style="text;html=1;strokeColor=none;fillColor=none;align=left;verticalAlign=middle;whiteSpace=wrap;rounded=0;" vertex="1" parent="1">
          <mxGeometry x="520" y="2190" width="160" height="70" as="geometry" />
        </mxCell>
        <mxCell id="ObnNZoZUJbo5KREX1ywR-10" value="XMTP&lt;br&gt;Push" style="text;html=1;strokeColor=none;fillColor=none;align=left;verticalAlign=middle;whiteSpace=wrap;rounded=0;" vertex="1" parent="1">
          <mxGeometry x="520" y="2270" width="160" height="52.38" as="geometry" />
        </mxCell>
        <mxCell id="GN4ar2SNNFl76MhofaQy-1" style="vsdxID=586;fillColor=none;gradientColor=none;strokeColor=none;spacingTop=-3;spacingBottom=-3;spacingLeft=-3;spacingRight=-3;labelBackgroundColor=none;rounded=0;html=1;whiteSpace=wrap;" vertex="1" parent="1">
          <mxGeometry x="910" y="1920" width="90" height="90" as="geometry" />
        </mxCell>
        <mxCell id="GN4ar2SNNFl76MhofaQy-2" style="vsdxID=587;fillColor=none;gradientColor=none;strokeColor=none;spacingTop=-3;spacingBottom=-3;spacingLeft=-3;spacingRight=-3;labelBackgroundColor=none;rounded=0;html=1;whiteSpace=wrap;" vertex="1" parent="GN4ar2SNNFl76MhofaQy-1">
          <mxGeometry x="30" width="28.571428571428573" height="70.98591549295776" as="geometry" />
        </mxCell>
        <mxCell id="GN4ar2SNNFl76MhofaQy-3" style="vsdxID=588;fillColor=#ffffff;gradientColor=none;shape=stencil(lZPbDoIwDIafZpcuWwtzXhoP70EEhHiADFR4e4FNYDA07qr7u7/50nYEd0US5BEBVpQqu0SvNCwTgnsCkN6TSKVlExE8ENzFmYrOKnvcQ33Pg/ZlG92yZ1uh0j7pUxStC1itFe5R4XXKURtOD6Ud3DxgHpWS+5v+GL/Jo0f5mhmxgh8mkxc+lbDh7HO4seMccyZ1nGzrQDVVbT6DImxATS0HPmEDTlw4bdZfXKtxrZp/bwG4PODq9TLUZKhOqMUOWNCjCYINaDcbfpiWB+tibeJhg+P0etUfoN/RJphufCPp34KHNw==);strokeColor=#000000;spacingTop=-3;spacingBottom=-3;spacingLeft=-3;spacingRight=-3;labelBackgroundColor=none;rounded=0;html=1;whiteSpace=wrap;" vertex="1" parent="GN4ar2SNNFl76MhofaQy-2">
          <mxGeometry x="4.285714285714286" width="21.42857142857143" height="19.01408450704226" as="geometry" />
        </mxCell>
        <mxCell id="GN4ar2SNNFl76MhofaQy-4" vertex="1" parent="GN4ar2SNNFl76MhofaQy-2">
          <mxGeometry y="70.98591549295776" as="geometry" />
        </mxCell>
        <mxCell id="GN4ar2SNNFl76MhofaQy-5" vertex="1" parent="GN4ar2SNNFl76MhofaQy-2">
          <mxGeometry x="14.285714285714286" y="53.239436619718326" as="geometry" />
        </mxCell>
        <mxCell id="GN4ar2SNNFl76MhofaQy-6" style="vsdxID=593;edgeStyle=none;startArrow=none;endArrow=none;startSize=5;endSize=5;strokeColor=#000000;spacingTop=-3;spacingBottom=-3;spacingLeft=-3;spacingRight=-3;verticalAlign=middle;html=1;labelBackgroundColor=none;rounded=0;" edge="1" parent="GN4ar2SNNFl76MhofaQy-2" source="GN4ar2SNNFl76MhofaQy-4" target="GN4ar2SNNFl76MhofaQy-5">
          <mxGeometry relative="1" as="geometry">
            <mxPoint x="-1" as="offset" />
            <Array as="points" />
          </mxGeometry>
        </mxCell>
        <mxCell id="GN4ar2SNNFl76MhofaQy-7" vertex="1" parent="GN4ar2SNNFl76MhofaQy-2">
          <mxGeometry x="14.285714285714286" y="53.239436619718326" as="geometry" />
        </mxCell>
        <mxCell id="GN4ar2SNNFl76MhofaQy-8" style="vsdxID=589;edgeStyle=none;startArrow=none;endArrow=none;startSize=5;endSize=5;strokeColor=#000000;spacingTop=-3;spacingBottom=-3;spacingLeft=-3;spacingRight=-3;verticalAlign=middle;html=1;labelBackgroundColor=none;rounded=0;exitX=0.4666666666666667;exitY=1;exitDx=0;exitDy=0;exitPerimeter=0;" edge="1" parent="GN4ar2SNNFl76MhofaQy-2" source="GN4ar2SNNFl76MhofaQy-3" target="GN4ar2SNNFl76MhofaQy-7">
          <mxGeometry relative="1" as="geometry">
            <mxPoint x="1" as="offset" />
            <Array as="points" />
          </mxGeometry>
        </mxCell>
        <mxCell id="GN4ar2SNNFl76MhofaQy-9" style="vsdxID=590;edgeStyle=none;startArrow=none;endArrow=none;startSize=5;endSize=5;strokeColor=#000000;spacingTop=-3;spacingBottom=-3;spacingLeft=-3;spacingRight=-3;verticalAlign=middle;html=1;labelBackgroundColor=none;rounded=0;" edge="1" parent="GN4ar2SNNFl76MhofaQy-2">
          <mxGeometry relative="1" as="geometry">
            <mxPoint as="offset" />
            <Array as="points" />
            <mxPoint y="35.49295774647888" as="sourcePoint" />
            <mxPoint x="28.571428571428573" y="35.49295774647888" as="targetPoint" />
          </mxGeometry>
        </mxCell>
        <mxCell id="GN4ar2SNNFl76MhofaQy-10" style="vsdxID=591;edgeStyle=none;startArrow=none;endArrow=none;startSize=5;endSize=5;strokeColor=#000000;spacingTop=-3;spacingBottom=-3;spacingLeft=-3;spacingRight=-3;verticalAlign=middle;html=1;labelBackgroundColor=none;rounded=0;" edge="1" parent="GN4ar2SNNFl76MhofaQy-2">
          <mxGeometry relative="1" as="geometry">
            <mxPoint x="-1" y="-1" as="offset" />
            <Array as="points" />
            <mxPoint x="14.285714285714286" y="53.239436619718326" as="sourcePoint" />
            <mxPoint x="28.571428571428573" y="70.98591549295776" as="targetPoint" />
          </mxGeometry>
        </mxCell>
        <mxCell id="GN4ar2SNNFl76MhofaQy-11" style="vsdxID=592;edgeStyle=none;startArrow=none;endArrow=none;startSize=5;endSize=5;strokeColor=#000000;spacingTop=-3;spacingBottom=-3;spacingLeft=-3;spacingRight=-3;verticalAlign=middle;html=1;labelBackgroundColor=none;rounded=0;" edge="1" parent="GN4ar2SNNFl76MhofaQy-2">
          <mxGeometry relative="1" as="geometry">
            <mxPoint x="-1" y="-1" as="offset" />
            <Array as="points" />
            <mxPoint x="14.285714285714286" y="53.239436619718326" as="sourcePoint" />
            <mxPoint x="28.571428571428573" y="70.98591549295776" as="targetPoint" />
          </mxGeometry>
        </mxCell>
        <mxCell id="GN4ar2SNNFl76MhofaQy-12" value="&lt;p style=&quot;margin-left: 0 ; margin-right: 0 ; margin-top: 0px ; margin-bottom: 0px ; text-indent: 0 ; direction: ltr&quot;&gt;&lt;font style=&quot;font-size: 14px ; font-family: &amp;quot;helvetica&amp;quot; ; color: #000000 ; direction: ltr ; letter-spacing: 0px ; line-height: 120% ; opacity: 1&quot;&gt;User&lt;/font&gt;&lt;/p&gt;" style="verticalAlign=middle;align=center;vsdxID=594;fillColor=none;gradientColor=none;shape=stencil(nZBRDoQgDERP03+WHsHFe5iISyOCQdT19kIaIxq//Jtp3zTpAFaTaUYNUkwx+F6v1EYD+AUpyRkdKCYFqACrzgf9C352LfuxyWRWg1/yhT/nRE5IsZWuZtCSK8CPeI0e/hF+jV7AJM4PO7KWCyr390bSiNtEtQM=);strokeColor=none;spacingTop=-3;spacingBottom=-3;spacingLeft=1;spacingRight=1;labelBackgroundColor=none;rounded=0;html=1;whiteSpace=wrap;" vertex="1" parent="GN4ar2SNNFl76MhofaQy-1">
          <mxGeometry y="81.71830985915493" width="90" height="20.281690140845072" as="geometry" />
        </mxCell>
        <mxCell id="9_uPriABrf-CSc4fvWER-1" value="" style="image;aspect=fixed;html=1;points=[];align=center;fontSize=12;image=img/lib/azure2/other/Connected_Vehicle_Platform.svg;" vertex="1" parent="1">
          <mxGeometry x="920" y="2252.38" width="89.73" height="68.62" as="geometry" />
        </mxCell>
        <mxCell id="9_uPriABrf-CSc4fvWER-13" value="&lt;b&gt;Data&lt;/b&gt;" style="rounded=0;whiteSpace=wrap;html=1;fontFamily=Helvetica;verticalAlign=bottom;align=right;fontSize=13;fontStyle=2;opacity=90;glass=0;fontColor=#000000;" vertex="1" parent="1">
          <mxGeometry x="430" y="2130" width="300" height="60" as="geometry" />
        </mxCell>
        <mxCell id="9_uPriABrf-CSc4fvWER-14" value="Jupyter / Collab&lt;br&gt;Pinecone&lt;br&gt;GCP" style="text;html=1;strokeColor=none;fillColor=none;align=left;verticalAlign=middle;whiteSpace=wrap;rounded=0;" vertex="1" parent="1">
          <mxGeometry x="520" y="2125" width="160" height="70" as="geometry" />
        </mxCell>
      </root>
    </mxGraphModel>
  </diagram>
  <diagram id="adSwoUCiFSW559nyEVUO" name="Page-3">
    <mxGraphModel dx="946" dy="695" grid="1" gridSize="10" guides="1" tooltips="1" connect="1" arrows="1" fold="1" page="1" pageScale="1" pageWidth="1600" pageHeight="900" math="0" shadow="0">
      <root>
        <mxCell id="0" />
        <mxCell id="1" parent="0" />
        <mxCell id="PmPFW9xvXfmEW1XXQrHH-1" value="Car" style="whiteSpace=wrap;html=1;aspect=fixed;" vertex="1" parent="1">
          <mxGeometry x="130" y="380" width="80" height="80" as="geometry" />
        </mxCell>
        <mxCell id="PmPFW9xvXfmEW1XXQrHH-3" value="Crash Detection" style="text;html=1;strokeColor=none;fillColor=none;align=center;verticalAlign=middle;whiteSpace=wrap;rounded=0;" vertex="1" parent="1">
          <mxGeometry x="140" y="610" width="60" height="30" as="geometry" />
        </mxCell>
        <mxCell id="PmPFW9xvXfmEW1XXQrHH-4" value="" style="endArrow=classic;html=1;rounded=0;exitX=1;exitY=0.5;exitDx=0;exitDy=0;entryX=-0.025;entryY=0.284;entryDx=0;entryDy=0;entryPerimeter=0;" edge="1" parent="1" source="PmPFW9xvXfmEW1XXQrHH-1" target="PmPFW9xvXfmEW1XXQrHH-19">
          <mxGeometry width="50" height="50" relative="1" as="geometry">
            <mxPoint x="420" y="480" as="sourcePoint" />
            <mxPoint x="420" y="460" as="targetPoint" />
          </mxGeometry>
        </mxCell>
        <mxCell id="PmPFW9xvXfmEW1XXQrHH-5" value="&amp;lt; event / msg &amp;gt;" style="text;html=1;strokeColor=none;fillColor=none;align=center;verticalAlign=middle;whiteSpace=wrap;rounded=0;" vertex="1" parent="1">
          <mxGeometry x="260" y="393" width="120" height="30" as="geometry" />
        </mxCell>
        <mxCell id="PmPFW9xvXfmEW1XXQrHH-6" value="&amp;lt; identity / msg &amp;gt;" style="text;html=1;strokeColor=none;fillColor=none;align=center;verticalAlign=middle;whiteSpace=wrap;rounded=0;" vertex="1" parent="1">
          <mxGeometry x="260" y="416" width="120" height="30" as="geometry" />
        </mxCell>
        <mxCell id="PmPFW9xvXfmEW1XXQrHH-8" value="User Identity" style="rounded=0;whiteSpace=wrap;html=1;" vertex="1" parent="1">
          <mxGeometry x="130" y="480" width="80" height="70" as="geometry" />
        </mxCell>
        <mxCell id="PmPFW9xvXfmEW1XXQrHH-9" value="DApp" style="whiteSpace=wrap;html=1;aspect=fixed;" vertex="1" parent="1">
          <mxGeometry x="430" y="105" width="120" height="120" as="geometry" />
        </mxCell>
        <mxCell id="PmPFW9xvXfmEW1XXQrHH-13" value="" style="rounded=0;whiteSpace=wrap;html=1;fillColor=none;" vertex="1" parent="1">
          <mxGeometry x="100" y="350" width="140" height="240" as="geometry" />
        </mxCell>
        <mxCell id="PmPFW9xvXfmEW1XXQrHH-14" value="-Register Identity (Dock.io)&lt;br&gt;-Create Channel (Push)" style="text;html=1;strokeColor=none;fillColor=none;align=left;verticalAlign=middle;whiteSpace=wrap;rounded=0;" vertex="1" parent="1">
          <mxGeometry x="560" y="105" width="180" height="130" as="geometry" />
        </mxCell>
        <mxCell id="PmPFW9xvXfmEW1XXQrHH-19" value="DLT" style="rounded=0;whiteSpace=wrap;html=1;" vertex="1" parent="1">
          <mxGeometry x="419" y="350" width="160" height="250" as="geometry" />
        </mxCell>
        <mxCell id="PmPFW9xvXfmEW1XXQrHH-16" value="DID (dock.io)" style="rounded=1;whiteSpace=wrap;html=1;" vertex="1" parent="1">
          <mxGeometry x="450" y="366" width="100" height="50" as="geometry" />
        </mxCell>
        <mxCell id="PmPFW9xvXfmEW1XXQrHH-17" value="Push protocol" style="rounded=1;whiteSpace=wrap;html=1;" vertex="1" parent="1">
          <mxGeometry x="450" y="530" width="100" height="50" as="geometry" />
        </mxCell>
        <mxCell id="PmPFW9xvXfmEW1XXQrHH-20" value="Insurance Co." style="rounded=0;whiteSpace=wrap;html=1;" vertex="1" parent="1">
          <mxGeometry x="660" y="325" width="120" height="60" as="geometry" />
        </mxCell>
        <mxCell id="PmPFW9xvXfmEW1XXQrHH-21" value="Financial Institution" style="rounded=0;whiteSpace=wrap;html=1;" vertex="1" parent="1">
          <mxGeometry x="660" y="405" width="120" height="60" as="geometry" />
        </mxCell>
        <mxCell id="PmPFW9xvXfmEW1XXQrHH-22" value="First Responders" style="rounded=0;whiteSpace=wrap;html=1;" vertex="1" parent="1">
          <mxGeometry x="660" y="485" width="120" height="60" as="geometry" />
        </mxCell>
        <mxCell id="PmPFW9xvXfmEW1XXQrHH-23" value="Connected Assets (IoT)" style="rounded=0;whiteSpace=wrap;html=1;" vertex="1" parent="1">
          <mxGeometry x="660" y="565" width="120" height="60" as="geometry" />
        </mxCell>
        <mxCell id="PmPFW9xvXfmEW1XXQrHH-25" value="Issuer" style="whiteSpace=wrap;html=1;aspect=fixed;" vertex="1" parent="1">
          <mxGeometry x="250" y="130" width="80" height="80" as="geometry" />
        </mxCell>
        <mxCell id="PmPFW9xvXfmEW1XXQrHH-27" value="-Send a Proof of no bad driving / incidents&lt;br&gt;-&amp;gt;Speed" style="text;html=1;strokeColor=none;fillColor=none;align=left;verticalAlign=middle;whiteSpace=wrap;rounded=0;" vertex="1" parent="1">
          <mxGeometry x="155" y="250" width="270" height="50" as="geometry" />
        </mxCell>
      </root>
    </mxGraphModel>
  </diagram>
</mxfile>
